<?xml version="1.0" encoding="UTF-8" standalone="no"?>
<!-- Created with Inkscape (http://www.inkscape.org/) -->

<svg
   width="210mm"
   height="297mm"
   viewBox="0 0 210 297"
   version="1.1"
   id="svg5"
   xml:space="preserve"
   sodipodi:docname="homepage svg.svg"
   inkscape:version="1.2.2 (b0a8486541, 2022-12-01)"
   xmlns:inkscape="http://www.inkscape.org/namespaces/inkscape"
   xmlns:sodipodi="http://sodipodi.sourceforge.net/DTD/sodipodi-0.dtd"
   xmlns="http://www.w3.org/2000/svg"
   xmlns:svg="http://www.w3.org/2000/svg"><sodipodi:namedview
     id="namedview7"
     pagecolor="#ffffff"
     bordercolor="#000000"
     borderopacity="0.25"
     inkscape:showpageshadow="2"
     inkscape:pageopacity="0.0"
     inkscape:pagecheckerboard="0"
     inkscape:deskcolor="#d1d1d1"
     inkscape:document-units="mm"
     showgrid="false"
     inkscape:zoom="1.1893044"
     inkscape:cx="372.90705"
     inkscape:cy="917.34294"
     inkscape:window-width="1920"
     inkscape:window-height="1148"
     inkscape:window-x="0"
     inkscape:window-y="24"
     inkscape:window-maximized="1"
     inkscape:current-layer="svg5" /><defs
     id="defs2" /><g
     inkscape:groupmode="layer"
     id="layer2"
     inkscape:label="grass background"
     style="display:inline"><path
       style="display:inline;opacity:1;fill:#8db14f;fill-opacity:1;stroke-width:0.264583"
       d="m 0,258.02683 c 30.802123,-2.26892 58.115758,5.87195 80.507194,5.72298 30.806486,-0.20496 62.302296,-15.71137 97.329126,-16.05434 C 198.98973,247.48834 210,249.35777 210,249.35777 V 297 H 0 Z"
       id="path234"
       sodipodi:nodetypes="csscccc" /></g><g
     inkscape:groupmode="layer"
     id="layer3"
     inkscape:label="grass foreground"
     style="fill:#5c9c48;fill-opacity:1"><path
       style="display:inline;opacity:1;fill:#5c9c48;fill-opacity:1;stroke-width:0.264583"
       d="m 131.89605,297.99734 c 0,0 5.22074,-4.65688 8.38916,-9.98455 1.47769,1.74203 1.39254,3.57659 1.39254,3.57659 0,0 1.08282,-2.64204 1.86229,-6.44201 1.23433,1.66407 1.59657,3.49351 1.59657,3.49351 0,0 4.06184,-5.953 8.10907,-6.42478 -4.49423,3.90792 -4.35569,8.4498 -4.35569,8.4498 0,0 2.20962,-0.17455 3.63331,-2.53545 1.4792,1.8204 1.48762,6.65764 1.48762,6.65764 0,0 2.09695,-0.83798 2.52182,-3.7109 2.55327,1.90294 2.11216,6.60042 2.11216,6.60042"
       id="path341"
       sodipodi:nodetypes="ccccccccccc" /><path
       style="opacity:1;fill:#5c9c48;fill-opacity:1;stroke-width:0.26811"
       d="m -5.4930055,297.1737 c 1.5426078,-9.1954 11.3989192,-15.66398 11.3989192,-15.66398 0,0 -3.3030579,9.00336 -2.2557401,12.67486 1.1599576,-5.37238 6.0914086,-9.11801 6.0914086,-9.11801 0,0 -1.2120681,5.35208 0.3196028,7.79646 2.912664,-7.47936 9.839536,-10.32347 9.839536,-10.32347 0,0 -3.878875,5.62605 -3.646884,9.88404 0.58909,-1.43522 2.210393,-3.39207 2.210393,-3.39207 0,0 -0.138231,3.31797 0.718456,3.92303 2.260144,1.5963 5.535356,-7.60459 5.535356,-7.60459 0,0 1.681692,3.97654 1.153444,7.26053 2.672089,-1.84784 4.089017,-1.70848 4.089017,-1.70848 0,0 -1.793322,2.97523 -1.417957,5.17348 2.326829,0.10258 3.859876,-2.09037 3.859876,-2.09037 0,0 0.830022,1.51452 0.203669,3.44111"
       id="path337"
       sodipodi:nodetypes="ccccccccscccccc" /><path
       style="opacity:1;fill:#5c9c48;fill-opacity:1;stroke-width:0.264583"
       d="m 177.67131,298.77146 c 3.94114,-2.75855 4.37286,-7.48651 4.8434,-10.88915 2.04718,2.49582 1.8225,8.28622 1.8225,8.28622 0,0 4.61594,-6.22678 2.82385,-17.2029 3.7764,1.12049 5.17874,10.50206 5.17874,10.50206 0,0 3.00898,-10.19156 7.77513,-11.74747 -1.24146,2.49874 -1.46819,8.59048 -1.46819,8.59048 0,0 2.92327,-1.22632 4.34594,-4.47167 0.63983,3.45997 0.14334,7.74046 0.14334,7.74046 0,0 2.23047,-4.848 5.10215,-6.63288 -0.066,7.96 2.98287,8.49539 2.98287,8.49539 l 0.23158,7.40968 z"
       id="path339"
       sodipodi:nodetypes="ccccccccccccc" /><path
       style="opacity:1;fill:#5c9c48;fill-opacity:1;stroke-width:0.264583"
       d="m 39.102945,297.52657 c 0,0 8.317322,-5.18066 13.626492,-5.98506 -3.501036,2.5597 -4.616341,4.83274 -4.616341,4.83274 0,0 3.301795,-1.06975 6.742887,-2.2535 0.168963,0.98161 -0.142479,1.14499 -0.142479,1.14499 0,0 4.871852,-1.70548 7.76788,-1.40798 -2.775821,1.58643 -3.595577,3.65029 -3.595577,3.65029 z"
       id="path344"
       sodipodi:nodetypes="cccccccc" /></g><g
     inkscape:groupmode="layer"
     id="layer4"
     inkscape:label="soweli"><path
       style="color:#000000;fill:#fff9f9;fill-opacity:1;stroke-linecap:round;stroke-linejoin:round;-inkscape-stroke:none"
       d="m 196.50781,242.08806 c -2.03561,-0.026 -3.23828,1.63672 -3.23828,1.63672 a 0.53250003,0.53250003 0 0 0 0.11133,0.74414 0.53250003,0.53250003 0 0 0 0.74414,-0.11133 c 0,0 0.9282,-1.22346 2.36914,-1.20508 2.00732,0.0256 2.78221,0.85105 2.98242,1.74805 0.20021,0.89701 -0.25654,1.97086 -1.14453,2.47266 a 0.53255328,0.53255328 0 0 0 -0.22851,0.67187 c 0.59735,1.39583 0.85077,2.04754 0.94726,2.32422 0.0482,0.13834 0.0541,0.22104 0.0449,0.11523 -0.002,-0.0265 -0.0122,-0.0679 0.0156,-0.17187 0.007,-0.026 0.0334,-0.0903 0.0332,-0.0898 -2.3e-4,4.7e-4 0.0764,-0.1175 0.0762,-0.11719 -5e-5,6e-5 0.0197,-0.0155 0.0293,-0.0234 a 0.53250003,0.53250003 0 0 0 -0.0195,0.73633 c 0,0 0.0889,0.0755 0.0898,0.0762 5e-4,3.4e-4 0.12245,0.0623 0.12305,0.0625 3e-4,1.1e-4 0.11102,0.0254 0.11133,0.0254 3.1e-4,4e-5 0.15594,-0.002 0.15625,-0.002 3e-4,-5e-5 0.17744,-0.0643 0.17773,-0.0644 2.9e-4,-1.7e-4 0.13841,-0.11298 0.13867,-0.11329 2.7e-4,-3e-4 0.0759,-0.11867 0.0762,-0.11914 2.2e-4,-4.7e-4 0.0278,-0.0684 0.0351,-0.0957 0.0293,-0.10926 0.021,-0.15564 0.0176,-0.19531 -0.0137,-0.1587 -0.0419,-0.20744 -0.0996,-0.37305 -0.10137,-0.29067 -0.39891,-1.02171 -0.85547,-2.09961 1.00715,-0.79997 1.58683,-2.03162 1.31445,-3.25195 -0.3097,-1.38759 -1.67937,-2.55038 -4.00781,-2.58008 z m 3.17969,7.83789 c -3.1e-4,-4e-5 0.10968,0.0274 0.10937,0.0273 -6e-4,-2.1e-4 0.11964,0.0589 0.11915,0.0586 -0.001,-6.7e-4 0.0859,0.0742 0.0859,0.0742 a 0.53250003,0.53250003 0 0 0 -0.73437,-0.0195 c 0.0406,-0.0335 0.09,-0.0743 0.0898,-0.0742 -2.9e-4,1.7e-4 0.17609,-0.0625 0.17578,-0.0625 -3e-4,5e-5 0.15461,-0.004 0.1543,-0.004 z"
       id="path428" /><path
       style="color:#000000;fill:#fff9f9;fill-opacity:1;stroke-linecap:round;stroke-linejoin:round;-inkscape-stroke:none"
       d="m 196.34766,248.13689 a 0.53250003,0.53250003 0 0 0 -0.43164,0.61719 c 0.13867,0.78488 0.36132,1.97656 0.36132,1.97656 a 0.53250003,0.53250003 0 0 0 0.6211,0.42383 0.53250003,0.53250003 0 0 0 0.42578,-0.6211 c 0,0 -0.22275,-1.19153 -0.35938,-1.96484 a 0.53250003,0.53250003 0 0 0 -0.61718,-0.43164 z"
       id="path1121" /><path
       style="color:#000000;fill:#fff9f9;fill-opacity:1;stroke-linecap:round;stroke-linejoin:round;-inkscape-stroke:none"
       d="m 194.32812,248.3322 a 0.53250003,0.53250003 0 0 0 -0.32226,0.25 c -0.37169,0.6522 -0.49815,1.23667 -0.52149,1.66406 -0.0233,0.4274 0.0664,0.74414 0.0664,0.74414 a 0.53250003,0.53250003 0 0 0 0.66602,0.35547 0.53250003,0.53250003 0 0 0 0.35351,-0.66601 c 0,0 -0.0367,-0.0972 -0.0215,-0.375 0.0152,-0.27784 0.0924,-0.6892 0.38086,-1.19532 a 0.53250003,0.53250003 0 0 0 -0.19727,-0.72656 0.53250003,0.53250003 0 0 0 -0.4043,-0.0508 z"
       id="path1123" /><ellipse
       style="display:inline;opacity:1;fill:#fff9f9;fill-opacity:1;stroke:none;stroke-width:2.02803;stroke-linecap:round;stroke-linejoin:round;stroke-dasharray:none;stroke-opacity:1"
       id="path1179"
       cx="195.54681"
       cy="246.295"
       rx="0.59462672"
       ry="0.59014863" /><ellipse
       style="display:inline;opacity:1;fill:#fff9f9;fill-opacity:1;stroke:none;stroke-width:2.02803;stroke-linecap:round;stroke-linejoin:round;stroke-dasharray:none;stroke-opacity:1"
       id="ellipse1181"
       cx="197.55722"
       cy="245.24583"
       rx="0.59462672"
       ry="0.59014863" /><path
       style="color:#000000;fill:#fff9f9;fill-opacity:1;stroke-linecap:round;stroke-linejoin:round;-inkscape-stroke:none"
       d="m 193.03125,248.14861 a 0.53250003,0.53250003 0 0 0 -0.73633,0.16601 c -0.66124,1.04709 -0.90429,2.21094 -0.9043,2.21094 a 0.53250003,0.53250003 0 0 0 0.40821,0.63281 0.53250003,0.53250003 0 0 0 0.63281,-0.40625 c 0,0 0.23273,-1.02838 0.76367,-1.86914 a 0.53250003,0.53250003 0 0 0 -0.16406,-0.73437 z"
       id="path1125" /></g><g
     inkscape:groupmode="layer"
     id="layer5"
     inkscape:label="waso"><path
       style="color:#000000;fill:#fff9f9;fill-opacity:1;stroke-linecap:round;stroke-linejoin:round;-inkscape-stroke:none"
       d="m 203.50391,229.80876 a 0.53250003,0.53250003 0 0 0 -0.58985,0.46875 c -0.12054,1.05472 -0.66023,2.84939 -1.17187,4.33789 -0.51164,1.48851 -0.99024,2.68946 -0.99024,2.68946 a 0.53255328,0.53255328 0 0 0 0.36133,0.71289 c 0,0 2.09368,0.4191 4.17383,-0.31836 0.17089,0.40385 0.33209,0.8092 0.36914,1.04101 0.0494,0.30922 0.0293,0.41016 0.0293,0.41016 a 0.53250003,0.53250003 0 0 0 0.45507,0.59961 0.53250003,0.53250003 0 0 0 0.59961,-0.45508 c 0,0 0.034,-0.30232 -0.0332,-0.72265 -0.0672,-0.42034 -0.22957,-1.00544 -0.59766,-1.7129 a 0.53255328,0.53255328 0 0 0 -0.70703,-0.23242 c -1.4154,0.69564 -2.75814,0.54197 -3.42382,0.43164 0.1557,-0.39939 0.37258,-0.93713 0.77148,-2.09765 0.52077,-1.51507 1.07844,-3.3026 1.22266,-4.56446 a 0.53250003,0.53250003 0 0 0 -0.46875,-0.58789 z"
       id="path1186" /><ellipse
       style="display:inline;opacity:1;fill:#fff9f9;fill-opacity:1;stroke:none;stroke-width:2.02803;stroke-linecap:round;stroke-linejoin:round;stroke-dasharray:none;stroke-opacity:1"
       id="ellipse1188"
       cx="204.23808"
       cy="234.77879"
       rx="0.59462672"
       ry="0.59014863" /><ellipse
       style="display:inline;opacity:1;fill:#fff9f9;fill-opacity:1;stroke:none;stroke-width:2.02803;stroke-linecap:round;stroke-linejoin:round;stroke-dasharray:none;stroke-opacity:1"
       id="ellipse1190"
       cx="206.02345"
       cy="235.31366"
       rx="0.59462672"
       ry="0.59014863" /></g><g
     inkscape:groupmode="layer"
     id="layer6"
     inkscape:label="akesi"><path
       style="color:#000000;fill:#fff9f9;fill-opacity:1;stroke-linecap:round;stroke-linejoin:round;-inkscape-stroke:none"
       d="m 13.958984,267.68376 c -0.420423,-0.0752 -0.86945,-0.0616 -1.3125,0.008 -0.886099,0.13875 -1.795011,0.50655 -2.601562,0.99218 -0.8065516,0.48564 -1.5100644,1.08402 -1.9609376,1.7461 -0.2254366,0.33104 -0.3904831,0.68116 -0.4453125,1.06054 -0.05483,0.37939 0.021448,0.7937 0.2519531,1.13477 0.2779867,0.41132 0.7585783,0.57266 1.1933594,0.58594 0.434781,0.0133 0.8780932,-0.086 1.3203126,-0.22657 0.884438,-0.28118 1.768934,-0.74659 2.302734,-1.04101 0.458903,-0.25311 1.326759,-0.74917 1.994141,-1.35156 0.333691,-0.3012 0.630381,-0.62226 0.78125,-1.04493 0.150868,-0.42266 0.02639,-1.00811 -0.375,-1.34375 -0.335349,-0.28041 -0.728014,-0.44433 -1.148438,-0.51953 z m -1.146484,1.0586 c 0.705473,-0.11047 1.268482,-0.009 1.611328,0.27734 0.13493,0.11283 0.10023,0.0478 0.05664,0.16992 -0.04359,0.12212 -0.2242,0.36944 -0.492188,0.61133 -0.535974,0.48378 -1.362945,0.97268 -1.794922,1.21094 -0.509316,0.28091 -1.360968,0.71785 -2.113281,0.95703 -0.3761563,0.11959 -0.7276743,0.18492 -0.9628905,0.17773 -0.2352162,-0.007 -0.2999291,-0.0495 -0.3457031,-0.11718 -0.081552,-0.12067 -0.1015965,-0.22431 -0.078125,-0.38672 0.023471,-0.16241 0.1105492,-0.37696 0.2714844,-0.61328 0.3218703,-0.47265 0.9261053,-1.0073 1.6308592,-1.43164 0.704754,-0.42434 1.511324,-0.745 2.216797,-0.85547 z"
       id="path1197" /><path
       style="color:#000000;fill:#fff9f9;fill-opacity:1;stroke-linecap:round;stroke-linejoin:round;-inkscape-stroke:none"
       d="m 7.8164062,268.76189 a 0.53250003,0.53250003 0 0 0 -0.5371093,0.52734 0.53250003,0.53250003 0 0 0 0.5273437,0.53711 c 1.4659823,0.0146 2.6231954,0.871 3.4316404,1.77149 0.404223,0.45024 0.713898,0.90603 0.916016,1.24414 0.101059,0.16905 0.175873,0.30901 0.220703,0.40039 0.02242,0.0457 0.03626,0.0802 0.04102,0.0918 0.0024,0.006 0.0026,0.008 -0.0039,-0.0137 -0.0033,-0.0107 -0.0087,-0.0237 -0.01563,-0.0742 -0.0017,-0.0126 -0.0031,-0.0276 -0.0039,-0.0488 -8.44e-4,-0.0212 0.0039,-0.0882 0.0039,-0.0879 -3.9e-5,3.2e-4 0.04893,-0.16621 0.04883,-0.16601 -9.7e-5,1.9e-4 0.232574,-0.23641 0.232421,-0.23633 a 0.53250003,0.53250003 0 0 0 -0.226562,0.71875 0.53250003,0.53250003 0 0 0 0.71875,0.22461 c 1.52e-4,-8e-5 0.232326,-0.23809 0.232422,-0.23828 9.6e-5,-2e-4 0.05074,-0.16766 0.05078,-0.16797 4e-5,-3.1e-4 0.0048,-0.0678 0.0039,-0.0898 -8.78e-4,-0.0221 -0.004,-0.0371 -0.0059,-0.0508 -0.0075,-0.0549 -0.01389,-0.0752 -0.01953,-0.0937 -0.01128,-0.0371 -0.01972,-0.0567 -0.0293,-0.0801 -0.01915,-0.0468 -0.04231,-0.0952 -0.07227,-0.15625 -0.05992,-0.12214 -0.146087,-0.28509 -0.261719,-0.47852 -0.231264,-0.38686 -0.577559,-0.89611 -1.039062,-1.41015 -0.923006,-1.0281 -2.3414546,-2.10443 -4.2128908,-2.12305 z"
       id="path1199" /><ellipse
       style="display:inline;opacity:1;fill:#fff9f9;fill-opacity:1;stroke:none;stroke-width:2.02803;stroke-linecap:round;stroke-linejoin:round;stroke-dasharray:none;stroke-opacity:1"
       id="ellipse1205"
       cx="6.5912471"
       cy="270.81903"
       rx="0.59462672"
       ry="0.59014863" /><path
       style="color:#000000;fill:#fff9f9;fill-opacity:1;stroke-linecap:round;stroke-linejoin:round;-inkscape-stroke:none"
       d="m 10.138672,267.38103 a 0.53250003,0.53250003 0 0 0 -0.5371095,0.52734 0.53250003,0.53250003 0 0 0 0.5253905,0.53907 c 1.465983,0.0146 2.623195,0.86904 3.431641,1.76953 0.404222,0.45024 0.713897,0.90603 0.916015,1.24414 0.101059,0.16905 0.175873,0.30901 0.220704,0.40039 0.02241,0.0457 0.03821,0.0802 0.04297,0.0918 0.0024,0.006 0.0026,0.008 -0.0039,-0.0137 -0.0033,-0.0107 -0.0087,-0.0217 -0.01563,-0.0723 -0.0017,-0.0126 -0.005,-0.0296 -0.0059,-0.0508 -8.44e-4,-0.0212 0.0039,-0.0862 0.0039,-0.0859 -1.7e-5,1.3e-4 0.01126,-0.0363 0.02148,-0.0703 a 0.53250003,0.53250003 0 0 0 0.03516,0.38476 0.53250003,0.53250003 0 0 0 0.71875,0.22461 c 1.52e-4,-8e-5 0.232325,-0.23613 0.232421,-0.23633 9.6e-5,-1.9e-4 0.04879,-0.16766 0.04883,-0.16797 3.9e-5,-3.1e-4 0.0048,-0.0678 0.0039,-0.0898 -8.78e-4,-0.0221 -0.002,-0.039 -0.0039,-0.0527 -0.0075,-0.0549 -0.01389,-0.0733 -0.01953,-0.0918 -0.01128,-0.0371 -0.01972,-0.0587 -0.0293,-0.082 -0.01915,-0.0468 -0.04231,-0.0952 -0.07226,-0.15625 -0.05992,-0.12214 -0.14804,-0.28508 -0.263672,-0.47852 -0.231264,-0.38686 -0.575607,-0.89415 -1.037109,-1.4082 -0.923006,-1.0281 -2.341455,-2.10638 -4.212891,-2.125 z m 4.859375,3.94531 A 0.53250003,0.53250003 0 0 0 14.75,271.62322 c 0.0083,-0.0276 0.01761,-0.0606 0.01758,-0.0606 -9.6e-5,2e-4 0.230621,-0.23641 0.230469,-0.23633 z"
       id="path1201" /><ellipse
       style="display:inline;opacity:1;fill:#fff9f9;fill-opacity:1;stroke:none;stroke-width:2.02803;stroke-linecap:round;stroke-linejoin:round;stroke-dasharray:none;stroke-opacity:1"
       id="ellipse1208"
       cx="11.009092"
       cy="274.04028"
       rx="0.59462672"
       ry="0.59014863" /></g><g
     inkscape:groupmode="layer"
     id="layer7"
     inkscape:label="pipi"><path
       style="color:#000000;fill:#fff9f9;fill-opacity:1;stroke-linecap:round;stroke-linejoin:round;-inkscape-stroke:none"
       d="m 0.26757813,261.39079 a 0.53250003,0.53250003 0 0 0 -0.54687501,0.51954 0.53250003,0.53250003 0 0 0 0.51953126,0.54492 c 4.31333822,0.10912 7.45507812,2.65039 7.45507812,2.65039 a 0.53250003,0.53250003 0 0 0 0.7480469,-0.0762 0.53250003,0.53250003 0 0 0 -0.076172,-0.75 c 0,0 -3.3822307,-2.76933 -8.09960937,-2.88868 z"
       id="path1211" /><path
       style="color:#000000;fill:#fff9f9;fill-opacity:1;stroke-linecap:round;stroke-linejoin:round;-inkscape-stroke:none"
       d="m 7.2539062,261.21306 c -2.5993741,1.0519 -3.0507812,3.87305 -3.0507812,3.87305 a 0.53250003,0.53250003 0 0 0 0.4394531,0.61133 0.53250003,0.53250003 0 0 0 0.6113281,-0.43946 c 0,0 0.3778135,-2.2409 2.3984375,-3.05859 a 0.53250003,0.53250003 0 0 0 0.2949219,-0.69336 0.53250003,0.53250003 0 0 0 -0.6933594,-0.29297 z"
       id="path1213" /><path
       style="color:#000000;fill:#fff9f9;fill-opacity:1;stroke-linecap:round;stroke-linejoin:round;-inkscape-stroke:none"
       d="M 5.0410156,260.43962 C 2.41231,261.50339 2.140625,264.52556 2.140625,264.52556 a 0.53250003,0.53250003 0 0 0 0.4785156,0.58203 0.53250003,0.53250003 0 0 0 0.5820313,-0.48047 c 0,0 0.2489418,-2.39534 2.2402343,-3.20117 a 0.53250003,0.53250003 0 0 0 0.2929688,-0.69336 0.53250003,0.53250003 0 0 0 -0.6933594,-0.29297 z"
       id="path1215" /><path
       style="color:#000000;fill:#fff9f9;fill-opacity:1;stroke-linecap:round;stroke-linejoin:round;-inkscape-stroke:none"
       d="m 2.8007813,259.92986 c -2.63096092,1.06468 -2.6289063,4.04687 -2.6289063,4.04687 a 0.53250003,0.53250003 0 0 0 0.53515625,0.5293 0.53250003,0.53250003 0 0 0 0.52929685,-0.53516 c 0,0 -0.024194,-2.24977 1.9648438,-3.05468 a 0.53250003,0.53250003 0 0 0 0.2929687,-0.69336 0.53250003,0.53250003 0 0 0 -0.6933593,-0.29297 z"
       id="path1217" /><ellipse
       style="display:inline;opacity:1;fill:#fff9f9;fill-opacity:1;stroke:none;stroke-width:2.02803;stroke-linecap:round;stroke-linejoin:round;stroke-dasharray:none;stroke-opacity:1"
       id="ellipse1219"
       cx="6.5775585"
       cy="266.01675"
       rx="0.59462672"
       ry="0.59014863" /><ellipse
       style="display:inline;opacity:1;fill:#fff9f9;fill-opacity:1;stroke:none;stroke-width:2.02803;stroke-linecap:round;stroke-linejoin:round;stroke-dasharray:none;stroke-opacity:1"
       id="ellipse1222"
       cx="9.1734858"
       cy="262.85495"
       rx="0.59462672"
       ry="0.59014863" /></g><g
     inkscape:groupmode="layer"
     id="layer8"
     inkscape:label="kasi"
     style="fill:#5c9c48;fill-opacity:1"><path
       style="color:#000000;fill:#5c9c48;fill-opacity:1;stroke-linecap:round;stroke-linejoin:round;-inkscape-stroke:none"
       d="m 11.886719,255.26775 c -0.411138,0.0563 -0.728535,0.20687 -0.869141,0.5 -0.140606,0.29313 -0.02419,0.61361 0.15625,0.82422 0.303601,0.35436 0.855705,0.50301 1.417969,0.37304 0.0032,0.0373 0.01942,0.0559 0.02148,0.0937 0.04002,0.73257 -0.0957,1.51954 -0.0957,1.51953 h 0.002 c -4.18e-4,0.0123 -0.0054,0.033 -0.0059,0.0449 a 0.33253326,0.33253326 0 0 0 0.660156,0.0703 c 0,0 0.0017,-0.0437 0.002,-0.0449 h 0.002 c 0.0052,-0.13433 0.03685,-0.26634 0.04492,-0.41992 0.582392,0.18291 1.10508,0.19228 1.435547,-0.12696 0.188286,-0.18189 0.254124,-0.49895 0.15625,-0.7539 -0.09787,-0.25496 -0.302828,-0.4657 -0.605469,-0.66407 -0.337547,-0.22124 -0.665415,-0.3189 -0.964843,-0.21679 -0.04242,0.0145 -0.04108,0.0674 -0.07813,0.0879 -0.0423,-0.25187 -0.05335,-0.51548 -0.175782,-0.73242 -0.20043,-0.35516 -0.617269,-0.62131 -1.103515,-0.55469 z m 0.08984,0.6582 c 0.256732,-0.0352 0.325189,0.0291 0.435546,0.22461 0.01805,0.032 0.01727,0.10894 0.0332,0.14844 -0.308048,0.0514 -0.646299,9.3e-4 -0.767579,-0.14063 -0.07377,-0.0861 -0.05917,-0.10638 -0.06055,-0.10351 -0.0014,0.003 0.06298,-0.0883 0.359375,-0.12891 z m 1.482421,1.16992 c 0.02694,-0.009 0.135101,-0.0191 0.384766,0.14453 0.229865,0.15067 0.329476,0.28817 0.351563,0.34571 0.02209,0.0575 0.02197,0.0178 0.002,0.0371 -0.03768,0.0364 -0.414956,0.1113 -0.904297,-0.0566 0.015,-0.0788 0.006,-0.19905 0.02734,-0.25977 0.05513,-0.15685 0.111728,-0.20175 0.138671,-0.21094 z"
       id="path1225" /><path
       style="color:#000000;fill:#5c9c48;fill-opacity:1;stroke-linecap:round;stroke-linejoin:round;-inkscape-stroke:none"
       d="m 4.4023437,254.90447 c -0.2291865,-0.004 -0.4365028,0.094 -0.5976562,0.22656 -0.2801516,0.23042 -0.4494547,0.58693 -0.6074219,0.94922 -0.051241,-0.14187 -0.051685,-0.30356 -0.171875,-0.41406 -0.2390122,-0.21975 -0.6155683,-0.25966 -1.0039062,-0.13086 -0.3270614,0.10847 -0.5593675,0.22865 -0.7167969,0.42382 -0.078715,0.0976 -0.1366686,0.22635 -0.1367188,0.36524 -5.01e-5,0.13888 0.060114,0.26994 0.140625,0.36133 0.1610215,0.18278 0.380852,0.26181 0.6425782,0.31054 0.2082776,0.0388 0.4708064,0.0247 0.7382812,0.004 -0.02437,0.3688 -0.05334,0.76796 -0.095703,1.03711 a 0.31884442,0.31884442 0 0 0 0.6289063,0.10547 c 0,0 0.1775461,-0.67037 0.3476562,-1.23633 0.4517734,0.0961 0.914239,0.0881 1.2890625,-0.0937 0.2810766,-0.13633 0.5339526,-0.35409 0.6035156,-0.67969 0.069563,-0.3256 -0.092551,-0.67326 -0.4101562,-0.94922 -0.1974512,-0.17159 -0.4212041,-0.27526 -0.6503907,-0.27929 z m -0.011719,0.63672 c 0.049776,8.7e-4 0.1249254,0.0194 0.2441406,0.12304 0.2158113,0.18752 0.2167216,0.28144 0.2050781,0.33594 -0.011643,0.0545 -0.086101,0.15695 -0.2578125,0.24023 -0.1926247,0.0934 -0.4612433,-0.0152 -0.7285156,-0.0371 0.1202699,-0.23148 0.2454144,-0.49151 0.3554688,-0.58203 0.079568,-0.0654 0.131865,-0.081 0.1816406,-0.0801 z m -1.7949219,0.59375 c 0.027888,0.0256 0.048802,0.14952 0.076172,0.23632 -0.2338154,0.0203 -0.4547977,0.0257 -0.6035156,-0.002 -0.1054495,-0.0196 -0.1194212,-0.0386 -0.1660157,-0.0625 0.05924,-0.0452 0.1203028,-0.10163 0.3203126,-0.16797 0.2626786,-0.0871 0.3241394,-0.0489 0.3730468,-0.004 z"
       id="path1227" /><path
       style="color:#000000;fill:#5c9c48;fill-opacity:1;stroke-linecap:round;stroke-linejoin:round;-inkscape-stroke:none"
       d="m 206.80469,245.89079 c -0.51897,-0.0785 -0.96827,0.16849 -1.26367,0.52344 -0.1394,0.1675 -0.19557,0.39676 -0.29297,0.59961 -0.0142,-0.0233 -6.4e-4,-0.0556 -0.0176,-0.0781 -0.0924,-0.1231 -0.25616,-0.22149 -0.42578,-0.23243 -0.16963,-0.0109 -0.32801,0.0432 -0.49024,0.13282 -0.27001,0.14919 -0.46339,0.31552 -0.58203,0.51172 -0.11864,0.19619 -0.14714,0.4559 -0.0312,0.65429 0.1159,0.1984 0.32605,0.29976 0.55274,0.33789 0.1492,0.0251 0.3341,-0.0157 0.51171,-0.043 -0.0497,0.42822 -0.10803,0.89349 -0.1621,1.19336 h 0.002 c -4e-5,6.7e-4 -0.006,0.0352 -0.006,0.0352 a 0.29659215,0.29659215 0 0 0 0.58789,0.0703 c 0.001,-0.008 0.002,-0.0269 0.004,-0.0351 0,0 0.004,-0.0174 0.004,-0.0176 0.001,-0.0177 0.0559,-0.85684 0.29102,-1.66602 0.20566,0.0543 0.4099,0.16495 0.59765,0.0918 0.29875,-0.1164 0.56449,-0.3289 0.78125,-0.56836 0.21677,-0.23945 0.3879,-0.49904 0.44336,-0.78516 0.0277,-0.14306 0.0244,-0.30943 -0.0684,-0.45898 -0.0928,-0.14955 -0.26378,-0.23964 -0.43554,-0.26563 z m -0.0684,0.57813 c -0.0115,-0.0186 -1.4e-4,-0.0165 -0.01,0.0332 -0.0193,0.0994 -0.13388,0.31564 -0.30078,0.5 -0.16689,0.18437 -0.38346,0.34659 -0.55664,0.41407 -0.0898,0.035 -0.1161,-0.004 -0.16602,-0.008 0.0947,-0.21848 0.17349,-0.46932 0.29493,-0.61523 0.20928,-0.25147 0.408,-0.36312 0.71679,-0.31641 0.0557,0.008 0.033,0.0108 0.0215,-0.008 z m -1.98047,0.83008 c 0.0172,0.0254 0.0541,0.20678 0.0664,0.4082 -0.19737,0.0494 -0.36883,0.066 -0.47071,0.0488 -0.112,-0.0188 -0.14126,-0.0591 -0.13867,-0.0547 0.003,0.004 -0.0131,0.02 0.0273,-0.0469 0.0404,-0.0669 0.15285,-0.18364 0.36133,-0.29883 0.0945,-0.0522 0.14182,-0.0561 0.1543,-0.0566 z"
       id="path1229" /><path
       style="color:#000000;fill:#5c9c48;fill-opacity:1;stroke-linecap:round;stroke-linejoin:round;-inkscape-stroke:none"
       d="m 207.69922,247.38298 c -0.1439,-0.009 -0.27956,0.0354 -0.42188,0.10938 -0.23773,0.12355 -0.40914,0.26016 -0.51562,0.42578 -0.10648,0.16562 -0.13227,0.39551 -0.0273,0.56445 0.10493,0.16894 0.28595,0.24821 0.48243,0.2793 0.13194,0.0209 0.29609,-0.0133 0.45507,-0.0371 -0.0441,0.35294 -0.093,0.736 -0.14062,0.98437 h 0.002 c -4e-5,0.001 -0.006,0.0352 -0.006,0.0352 a 0.25469698,0.25469698 0 0 0 0.50391,0.0606 c 0.003,-0.0168 0.006,-0.056 0.01,-0.0742 0.002,-0.0358 0.0486,-0.49868 0.1582,-0.90625 0.35097,0.11559 0.69109,0.20963 0.95117,0.125 0.0797,-0.0259 0.16018,-0.0673 0.22656,-0.14258 0.0664,-0.0753 0.10568,-0.19023 0.0977,-0.29297 -0.016,-0.20547 -0.14035,-0.34096 -0.3125,-0.48633 -0.15989,-0.13501 -0.31643,-0.22466 -0.48242,-0.25781 -0.166,-0.0332 -0.33775,9.1e-4 -0.46875,0.0801 -0.0311,0.0188 -0.0293,0.0621 -0.0566,0.084 -0.0237,-0.1209 -0.005,-0.25578 -0.0879,-0.35937 -0.0827,-0.10359 -0.2233,-0.18268 -0.36719,-0.19141 z m -0.0312,0.50977 c 0.013,0.0162 0.0427,0.16699 0.0547,0.32617 -0.17775,0.042 -0.33338,0.0559 -0.42774,0.041 -0.1034,-0.0164 -0.1335,-0.0543 -0.1289,-0.0469 0.005,0.007 -0.011,0.034 0.0234,-0.0195 0.0344,-0.0535 0.13632,-0.15336 0.32227,-0.25 0.0913,-0.0475 0.14439,-0.0515 0.15625,-0.0508 z m 0.91211,0.37695 c 0.0514,0.0103 0.138,0.0486 0.2539,0.14649 0.0233,0.0197 0.009,0.008 0.0254,0.0254 -0.088,0.006 -0.25191,-0.0329 -0.43359,-0.0742 0.0157,-0.0165 0.0356,-0.0741 0.0488,-0.082 0.0348,-0.0211 0.054,-0.0259 0.10547,-0.0156 z"
       id="path1231" /></g></svg>
